{
  "accessors": [
    {
      "bufferView": 2,
      "componentType": 5126,
      "count": 2058,
      "max": [
        1.3084441423416138,
        1.0175703763961792,
        0.9245599508285522
      ],
      "min": [
        -1.3084441423416138,
        0.7179964780807495,
        0.4124821126461029
      ],
      "type": "VEC3"
    },
    {
      "bufferView": 2,
      "byteOffset": 24696,
      "componentType": 5126,
      "count": 2058,
      "max": [
        1.0,
        1.0,
        1.0
      ],
      "min": [
        -1.0,
        -1.0,
        -1.0
      ],
      "type": "VEC3"
    },
    {
      "bufferView": 3,
      "componentType": 5126,
      "count": 2058,
      "max": [
        1.0,
        1.0,
        1.0,
        1.0
      ],
      "min": [
        -1.0,
        -1.0,
        -1.0,
        -1.0
      ],
      "type": "VEC4"
    },
    {
      "bufferView": 1,
      "componentType": 5126,
      "count": 2058,
      "max": [
        0.9700005650520325,
        0.22934934496879578
      ],
      "min": [
        0.006074755452573299,
        0.021558746695518494
      ],
      "type": "VEC2"
    },
    {
      "bufferView": 0,
      "componentType": 5125,
      "count": 4896,
      "type": "SCALAR"
    },
    {
      "bufferView": 2,
      "byteOffset": 49392,
      "componentType": 5126,
      "count": 994,
      "max": [
        0.8331380486488342,
        0.8255230188369751,
        -0.5445850491523743
      ],
      "min": [
        -0.6806660294532776,
        0.536014974117279,
        -0.9984099864959717
      ],
      "type": "VEC3"
    },
    {
      "bufferView": 2,
      "byteOffset": 61320,
      "componentType": 5126,
      "count": 994,
      "max": [
        0.9998172521591187,
        0.9994966983795166,
        0.9989262223243713
      ],
      "min": [
        -0.9999222755432129,
        -0.998486340045929,
        -0.9989244341850281
      ],
      "type": "VEC3"
    },
    {
      "bufferView": 3,
      "byteOffset": 32928,
      "componentType": 5126,
      "count": 994,
      "max": [
        0.9642208814620972,
        0.9991565942764282,
        0.9980593323707581,
        1.0
      ],
      "min": [
        -0.995429515838623,
        -0.9993336200714111,
        -0.9999181628227234,
        -1.0
      ],
      "type": "VEC4"
    },
    {
      "bufferView": 1,
      "byteOffset": 16464,
      "componentType": 5126,
      "count": 994,
      "max": [
        0.7824514508247375,
        0.9281307458877563
      ],
      "min": [
        0.002940929727628827,
        0.0028301426209509373
      ],
      "type": "VEC2"
    },
    {
      "bufferView": 0,
      "byteOffset": 19584,
      "componentType": 5125,
      "count": 5514,
      "type": "SCALAR"
    },
    {
      "bufferView": 2,
      "byteOffset": 73248,
      "componentType": 5126,
      "count": 2476,
      "max": [
        0.9215628504753113,
        0.5641927719116211,
        0.9915558695793152
      ],
      "min": [
        -0.9210963249206543,
        0.2993731200695038,
        -0.9947721362113953
      ],
      "type": "VEC3"
    },
    {
      "bufferView": 2,
      "byteOffset": 102960,
      "componentType": 5126,
      "count": 2476,
      "max": [
        0.9999920129776001,
        0.9999804496765137,
        0.998385488986969
      ],
      "min": [
        -0.9998441934585571,
        -1.0,
        -0.9999992847442627
      ],
      "type": "VEC3"
    },
    {
      "bufferView": 3,
      "byteOffset": 48832,
      "componentType": 5126,
      "count": 2476,
      "max": [
        0.9999999403953552,
        0.9973680973052979,
        0.9996340870857239,
        1.0
      ],
      "min": [
        -0.9999982118606567,
        -0.9998458623886108,
        -0.9999427199363708,
        -1.0
      ],
      "type": "VEC4"
    },
    {
      "bufferView": 1,
      "byteOffset": 24416,
      "componentType": 5126,
      "count": 2476,
      "max": [
        0.9868587851524353,
        0.9863024353981018
      ],
      "min": [
        0.5089327692985535,
        0.5142819881439209
      ],
      "type": "VEC2"
    },
    {
      "bufferView": 0,
      "byteOffset": 41640,
      "componentType": 5125,
      "count": 14412,
      "type": "SCALAR"
    },
    {
      "bufferView": 2,
      "byteOffset": 132672,
      "componentType": 5126,
      "count": 2021,
      "max": [
        0.9966859817504883,
        0.6952620148658752,
        0.7799140214920044
      ],
      "min": [
        -0.8106590509414673,
        0.37323200702667236,
        -0.3986130356788635
      ],
      "type": "VEC3"
    },
    {
      "bufferView": 2,
      "byteOffset": 156924,
      "componentType": 5126,
      "count": 2021,
      "max": [
        0.9958921074867249,
        0.9999978542327881,
        0.9982888698577881
      ],
      "min": [
        -0.9986405968666077,
        -0.9999134540557861,
        -0.9969792366027832
      ],
      "type": "VEC3"
    },
    {
      "bufferView": 3,
      "byteOffset": 88448,
      "componentType": 5126,
      "count": 2021,
      "max": [
        0.989434003829956,
        0.9980007410049438,
        0.9994179010391235,
        1.0
      ],
      "min": [
        -0.9602069854736328,
        -0.9992778897285461,
        -0.999977171421051,
        1.0
      ],
      "type": "VEC4"
    },
    {
      "bufferView": 1,
      "byteOffset": 44224,
      "componentType": 5126,
      "count": 2021,
      "max": [
        0.9725841283798218,
        0.5629931688308716
      ],
      "min": [
        0.5665116310119629,
        0.019163157790899277
      ],
      "type": "VEC2"
    },
    {
      "bufferView": 0,
      "byteOffset": 99288,
      "componentType": 5125,
      "count": 11601,
      "type": "SCALAR"
    },
    {
      "bufferView": 2,
      "byteOffset": 181176,
      "componentType": 5126,
      "count": 5353,
      "max": [
        1.1783572435379028,
        0.6789640784263611,
        1.3529304265975952
      ],
      "min": [
        -1.0419435501098633,
        -0.0009260898223146796,
        -0.12823985517024994
      ],
      "type": "VEC3"
    },
    {
      "bufferView": 2,
      "byteOffset": 245412,
      "componentType": 5126,
      "count": 5353,
      "max": [
        0.9997951984405518,
        0.9999994039535522,
        0.9999382495880127
      ],
      "min": [
        -0.9993983507156372,
        -1.0,
        -0.9977296590805054
      ],
      "type": "VEC3"
    },
    {
      "bufferView": 3,
      "byteOffset": 120784,
      "componentType": 5126,
      "count": 5353,
      "max": [
        0.9999849796295166,
        0.9995407462120056,
        0.9999958872795105,
        1.0
      ],
      "min": [
        -0.9998998045921326,
        -0.9999901056289673,
        -0.9998340606689453,
        -1.0
      ],
      "type": "VEC4"
    },
    {
      "bufferView": 1,
      "byteOffset": 60392,
      "componentType": 5126,
      "count": 5353,
      "max": [
        0.5676594376564026,
        0.942223072052002
      ],
      "min": [
        0.002853017533197999,
        0.0028998733032494783
      ],
      "type": "VEC2"
    },
    {
      "bufferView": 0,
      "byteOffset": 145692,
      "componentType": 5125,
      "count": 30870,
      "type": "SCALAR"
    },
    {
      "bufferView": 2,
      "byteOffset": 309648,
      "componentType": 5126,
      "count": 4455,
      "max": [
        1.3700000047683716,
        1.0377446413040161,
        1.131874918937683
      ],
      "min": [
        -1.3700001239776611,
        -1.0099999904632568,
        -0.02499999850988388
      ],
      "type": "VEC3"
    },
    {
      "bufferView": 2,
      "byteOffset": 363108,
      "componentType": 5126,
      "count": 4455,
      "max": [
        1.0,
        1.0,
        1.0
      ],
      "min": [
        -1.0,
        -1.0,
        -1.0
      ],
      "type": "VEC3"
    },
    {
      "bufferView": 3,
      "byteOffset": 206432,
      "componentType": 5126,
      "count": 4455,
      "max": [
        1.0,
        1.0,
        1.0,
        1.0
      ],
      "min": [
        -1.0,
        -1.0,
        -1.0,
        -1.0
      ],
      "type": "VEC4"
    },
    {
      "bufferView": 1,
      "byteOffset": 103216,
      "componentType": 5126,
      "count": 4455,
      "max": [
        0.9922096133232117,
        0.9956596493721008
      ],
      "min": [
        -6.861123256385326e-05,
        0.09022268652915955
      ],
      "type": "VEC2"
    },
    {
      "bufferView": 0,
      "byteOffset": 269172,
      "componentType": 5125,
      "count": 10026,
      "type": "SCALAR"
    }
  ],
  "asset": {
    "extras": {
      "author": "thethieme (https://sketchfab.com/thethieme)",
      "license": "CC-BY-4.0 (http://creativecommons.org/licenses/by/4.0/)",
      "source": "https://sketchfab.com/3d-models/messy-bed-20-with-wall-mounted-backboard-a2b2645701c94fa49e65661806219c6b",
      "title": "Messy bed 2.0 (with wall mounted backboard)"
    },
    "generator": "Sketchfab-12.66.0",
    "version": "2.0"
  },
  "bufferViews": [
    {
      "buffer": 0,
      "byteLength": 309276,
      "name": "floatBufferViews",
      "target": 34963
    },
    {
      "buffer": 0,
      "byteLength": 138856,
      "byteOffset": 309276,
      "byteStride": 8,
      "name": "floatBufferViews",
      "target": 34962
    },
    {
      "buffer": 0,
      "byteLength": 416568,
      "byteOffset": 448132,
      "byteStride": 12,
      "name": "floatBufferViews",
      "target": 34962
    },
    {
      "buffer": 0,
      "byteLength": 277712,
      "byteOffset": 864700,
      "byteStride": 16,
      "name": "floatBufferViews",
      "target": 34962
    }
  ],
  "buffers": [
    {
      "byteLength": 1142412,
      "uri": "scene.bin"
    }
  ],
  "images": [
    {
      "uri": "textures/Nordli_Frame_baseColor.png"
    },
    {
      "uri": "textures/Nordli_Frame_metallicRoughness.png"
    },
    {
      "uri": "textures/Nordli_Frame_normal.png"
    },
    {
      "uri": "textures/Nordli_Fabrics_baseColor.png"
    },
    {
      "uri": "textures/Nordli_Fabrics_metallicRoughness.png"
    },
    {
      "uri": "textures/Nordli_Fabrics_normal.png"
    }
  ],
  "materials": [
    {
      "doubleSided": true,
      "name": "Nordli_Frame",
      "normalTexture": {
        "index": 2
      },
      "occlusionTexture": {
        "index": 1
      },
      "pbrMetallicRoughness": {
        "baseColorTexture": {
          "index": 0
        },
        "metallicFactor": 0.0,
        "metallicRoughnessTexture": {
          "index": 1
        }
      }
    },
    {
      "doubleSided": true,
      "name": "Nordli_Fabrics",
      "normalTexture": {
        "index": 5
      },
      "occlusionTexture": {
        "index": 4
      },
      "pbrMetallicRoughness": {
        "baseColorTexture": {
          "index": 3
        },
        "metallicFactor": 0.0,
        "metallicRoughnessTexture": {
          "index": 4
        }
      }
    }
  ],
  "meshes": [
    {
      "name": "Nordli_Shelves_Nordli_Frame_0",
      "primitives": [
        {
          "attributes": {
            "NORMAL": 1,
            "POSITION": 0,
            "TANGENT": 2,
            "TEXCOORD_0": 3
          },
          "indices": 4,
          "material": 0,
          "mode": 4
        }
      ]
    },
    {
      "name": "Nordli_Pillows_Low_Nordli_Fabrics_0",
      "primitives": [
        {
          "attributes": {
            "NORMAL": 6,
            "POSITION": 5,
            "TANGENT": 7,
            "TEXCOORD_0": 8
          },
          "indices": 9,
          "material": 1,
          "mode": 4
        }
      ]
    },
    {
      "name": "Nordli_Sheet_Low_Nordli_Fabrics_0",
      "primitives": [
        {
          "attributes": {
            "NORMAL": 11,
            "POSITION": 10,
            "TANGENT": 12,
            "TEXCOORD_0": 13
          },
          "indices": 14,
          "material": 1,
          "mode": 4
        }
      ]
    },
    {
      "name": "Nordli_Comforter_Low_Nordli_Fabrics_0",
      "primitives": [
        {
          "attributes": {
            "NORMAL": 16,
            "POSITION": 15,
            "TANGENT": 17,
            "TEXCOORD_0": 18
          },
          "indices": 19,
          "material": 1,
          "mode": 4
        }
      ]
    },
    {
      "name": "Nordli_Cover_Low_Nordli_Fabrics_0",
      "primitives": [
        {
          "attributes": {
            "NORMAL": 21,
            "POSITION": 20,
            "TANGENT": 22,
            "TEXCOORD_0": 23
          },
          "indices": 24,
          "material": 1,
          "mode": 4
        }
      ]
    },
    {
      "name": "Nordli_Frame_Low_Nordli_Frame_0",
      "primitives": [
        {
          "attributes": {
            "NORMAL": 26,
            "POSITION": 25,
            "TANGENT": 27,
            "TEXCOORD_0": 28
          },
          "indices": 29,
          "material": 0,
          "mode": 4
        }
      ]
    }
  ],
  "nodes": [
    {
      "children": [
        1
      ],
      "matrix": [
        1.0,
        0.0,
        0.0,
        0.0,
        0.0,
        2.220446049250313e-16,
        -1.0,
        0.0,
        0.0,
        1.0,
        2.220446049250313e-16,
        0.0,
        0.0,
        0.0,
        0.0,
        1.0
      ],
      "name": "Sketchfab_model"
    },
    {
      "children": [
        2
      ],
      "matrix": [
        0.009999999776482582,
        0.0,
        0.0,
        0.0,
        0.0,
        0.0,
        0.009999999776482582,
        0.0,
        0.0,
        -0.009999999776482582,
        0.0,
        0.0,
        0.0,
        0.0,
        0.0,
        1.0
      ],
      "name": "3424d956a3904d468d1100f25915a64e.fbx"
    },
    {
      "children": [
        3,
        5,
        7,
        9,
        11,
        13
      ],
      "name": "RootNode"
    },
    {
      "children": [
        4
      ],
      "matrix": [
        100.0,
        0.0,
        0.0,
        0.0,
        0.0,
        -1.629206793918314e-05,
        -99.99999999999868,
        0.0,
        0.0,
        99.99999999999868,
        -1.629206793918314e-05,
        0.0,
        0.0,
        2.499999761581421,
        0.0,
        1.0
      ],
      "name": "Nordli_Shelves"
    },
    {
      "mesh": 0,
      "name": "Nordli_Shelves_Nordli_Frame_0"
    },
    {
      "children": [
        6
      ],
      "matrix": [
        100.0,
        0.0,
        0.0,
        0.0,
        0.0,
        99.99999999999866,
        1.6292067073209114e-05,
        0.0,
        0.0,
        -1.6292067073209114e-05,
        99.99999999999866,
        0.0,
        0.0,
        0.0,
        0.0,
        1.0
      ],
      "name": "Nordli_Pillows_Low"
    },
    {
      "mesh": 1,
      "name": "Nordli_Pillows_Low_Nordli_Fabrics_0"
    },
    {
      "children": [
        8
      ],
      "matrix": [
        100.0,
        0.0,
        0.0,
        0.0,
        0.0,
        99.99999999999866,
        1.6292067073209114e-05,
        0.0,
        0.0,
        -1.6292067073209114e-05,
        99.99999999999866,
        0.0,
        0.0,
        0.0,
        0.0,
        1.0
      ],
      "name": "Nordli_Sheet_Low"
    },
    {
      "mesh": 2,
      "name": "Nordli_Sheet_Low_Nordli_Fabrics_0"
    },
    {
      "children": [
        10
      ],
      "matrix": [
        100.0,
        0.0,
        0.0,
        0.0,
        0.0,
        99.99999999999866,
        1.6292067073209114e-05,
        0.0,
        0.0,
        -1.6292067073209114e-05,
        99.99999999999866,
        0.0,
        0.0,
        0.0,
        0.0,
        1.0
      ],
      "name": "Nordli_Comforter_Low"
    },
    {
      "mesh": 3,
      "name": "Nordli_Comforter_Low_Nordli_Fabrics_0"
    },
    {
      "children": [
        12
      ],
      "matrix": [
        100.0,
        0.0,
        0.0,
        0.0,
        0.0,
        99.99999999999866,
        1.6292067073209114e-05,
        0.0,
        0.0,
        -1.6292067073209114e-05,
        99.99999999999866,
        0.0,
        0.0,
        0.0,
        0.0,
        1.0
      ],
      "name": "Nordli_Cover_Low"
    },
    {
      "mesh": 4,
      "name": "Nordli_Cover_Low_Nordli_Fabrics_0"
    },
    {
      "children": [
        14
      ],
      "matrix": [
        100.0,
        0.0,
        0.0,
        0.0,
        0.0,
        -1.629206793918314e-05,
        -99.99999999999868,
        0.0,
        0.0,
        99.99999999999868,
        -1.629206793918314e-05,
        0.0,
        0.0,
        2.499999761581421,
        0.0,
        1.0
      ],
      "name": "Nordli_Frame_Low"
    },
    {
      "mesh": 5,
      "name": "Nordli_Frame_Low_Nordli_Frame_0"
    }
  ],
  "samplers": [
    {
      "magFilter": 9729,
      "minFilter": 9987,
      "wrapS": 10497,
      "wrapT": 10497
    }
  ],
  "scene": 0,
  "scenes": [
    {
      "name": "Sketchfab_Scene",
      "nodes": [
        0
      ]
    }
  ],
  "textures": [
    {
      "sampler": 0,
      "source": 0
    },
    {
      "sampler": 0,
      "source": 1
    },
    {
      "sampler": 0,
      "source": 2
    },
    {
      "sampler": 0,
      "source": 3
    },
    {
      "sampler": 0,
      "source": 4
    },
    {
      "sampler": 0,
      "source": 5
    }
  ]
}
