{
  "accessors": [
    {
      "bufferView": 2,
      "componentType": 5126,
      "count": 1079,
      "max": [
        1.9930930137634277,
        6.960312366485596,
        1.7881789207458496
      ],
      "min": [
        -1.9658293724060059,
        3.9905214309692383,
        -1.959742546081543
      ],
      "type": "VEC3"
    },
    {
      "bufferView": 2,
      "byteOffset": 12948,
      "componentType": 5126,
      "count": 1079,
      "max": [
        0.9979237914085388,
        0.9969101548194885,
        0.9983036518096924
      ],
      "min": [
        -0.9992361664772034,
        -0.9992948770523071,
        -0.9983036518096924
      ],
      "type": "VEC3"
    },
    {
      "bufferView": 1,
      "componentType": 5126,
      "count": 1079,
      "max": [
        0.875,
        1.0
      ],
      "min": [
        0.125,
        0.0
      ],
      "type": "VEC2"
    },
    {
      "bufferView": 0,
      "componentType": 5125,
      "count": 4524,
      "type": "SCALAR"
    },
    {
      "bufferView": 2,
      "byteOffset": 25896,
      "componentType": 5126,
      "count": 498,
      "max": [
        1.2934575080871582,
        6.9444990158081055,
        1.028536319732666
      ],
      "min": [
        -1.464470624923706,
        4.152904987335205,
        -1.5598851442337036
      ],
      "type": "VEC3"
    },
    {
      "bufferView": 2,
      "byteOffset": 31872,
      "componentType": 5126,
      "count": 498,
      "max": [
        0.9976642727851868,
        0.994749128818512,
        0.9800621867179871
      ],
      "min": [
        -0.9993538856506348,
        -0.9985296130180359,
        -0.9877448678016663
      ],
      "type": "VEC3"
    },
    {
      "bufferView": 1,
      "byteOffset": 8632,
      "componentType": 5126,
      "count": 498,
      "max": [
        0.875,
        1.0
      ],
      "min": [
        0.125,
        0.0
      ],
      "type": "VEC2"
    },
    {
      "bufferView": 0,
      "byteOffset": 18096,
      "componentType": 5125,
      "count": 2088,
      "type": "SCALAR"
    },
    {
      "bufferView": 2,
      "byteOffset": 37848,
      "componentType": 5126,
      "count": 98,
      "max": [
        1.001774787902832,
        3.8506834506988525,
        0.9999999403953552
      ],
      "min": [
        -0.9982251524925232,
        3.6075897216796875,
        -0.9999998807907104
      ],
      "type": "VEC3"
    },
    {
      "bufferView": 2,
      "byteOffset": 39024,
      "componentType": 5126,
      "count": 98,
      "max": [
        0.9100373387336731,
        1.0,
        0.9100373387336731
      ],
      "min": [
        -0.9100373983383179,
        -1.0,
        -0.9100373387336731
      ],
      "type": "VEC3"
    },
    {
      "bufferView": 1,
      "byteOffset": 12616,
      "componentType": 5126,
      "count": 98,
      "max": [
        0.65625,
        1.0
      ],
      "min": [
        0.34375,
        1.4901161193847656e-08
      ],
      "type": "VEC2"
    },
    {
      "bufferView": 0,
      "byteOffset": 26448,
      "componentType": 5125,
      "count": 288,
      "type": "SCALAR"
    },
    {
      "bufferView": 2,
      "byteOffset": 40200,
      "componentType": 5126,
      "count": 108,
      "max": [
        1.352362036705017,
        3.6487979888916016,
        1.415595531463623
      ],
      "min": [
        -1.9149959087371826,
        -0.13014817237854004,
        -1.6654351949691772
      ],
      "type": "VEC3"
    },
    {
      "bufferView": 2,
      "byteOffset": 41496,
      "componentType": 5126,
      "count": 108,
      "max": [
        0.9548489451408386,
        0.9079535007476807,
        1.0
      ],
      "min": [
        -0.9548491835594177,
        -0.9079529047012329,
        -1.0
      ],
      "type": "VEC3"
    },
    {
      "bufferView": 1,
      "byteOffset": 13400,
      "componentType": 5126,
      "count": 108,
      "max": [
        0.65625,
        1.0
      ],
      "min": [
        0.34375,
        1.4901161193847656e-08
      ],
      "type": "VEC2"
    },
    {
      "bufferView": 0,
      "byteOffset": 27600,
      "componentType": 5125,
      "count": 288,
      "type": "SCALAR"
    },
    {
      "bufferView": 2,
      "byteOffset": 42792,
      "componentType": 5126,
      "count": 128,
      "max": [
        0.9681381583213806,
        4.936622619628906,
        0.9525149464607239
      ],
      "min": [
        -0.968137800693512,
        4.574573516845703,
        -0.9837611317634583
      ],
      "type": "VEC3"
    },
    {
      "bufferView": 2,
      "byteOffset": 44328,
      "componentType": 5126,
      "count": 128,
      "max": [
        0.9090709090232849,
        0.9874535799026489,
        0.9090707302093506
      ],
      "min": [
        -0.9090709090232849,
        -0.9902320504188538,
        -0.9090710878372192
      ],
      "type": "VEC3"
    },
    {
      "bufferView": 1,
      "byteOffset": 14264,
      "componentType": 5126,
      "count": 128,
      "max": [
        0.625,
        0.6884398460388184
      ],
      "min": [
        0.375,
        0.3125
      ],
      "type": "VEC2"
    },
    {
      "bufferView": 0,
      "byteOffset": 28752,
      "componentType": 5125,
      "count": 192,
      "type": "SCALAR"
    },
    {
      "bufferView": 2,
      "byteOffset": 45864,
      "componentType": 5126,
      "count": 114,
      "max": [
        0.8568124771118164,
        4.880466938018799,
        0.8411893248558044
      ],
      "min": [
        -0.8568123579025269,
        3.853593349456787,
        -0.872435450553894
      ],
      "type": "VEC3"
    },
    {
      "bufferView": 2,
      "byteOffset": 47232,
      "componentType": 5126,
      "count": 114,
      "max": [
        0.8959456086158752,
        1.0,
        0.8959457278251648
      ],
      "min": [
        -0.89594566822052,
        -1.0,
        -0.8959457278251648
      ],
      "type": "VEC3"
    },
    {
      "bufferView": 1,
      "byteOffset": 15288,
      "componentType": 5126,
      "count": 114,
      "max": [
        0.65625,
        1.0
      ],
      "min": [
        0.34375,
        1.4901161193847656e-08
      ],
      "type": "VEC2"
    },
    {
      "bufferView": 0,
      "byteOffset": 29520,
      "componentType": 5125,
      "count": 192,
      "type": "SCALAR"
    },
    {
      "bufferView": 2,
      "byteOffset": 48600,
      "componentType": 5126,
      "count": 50,
      "max": [
        0.650547981262207,
        4.6303277015686035,
        0.6756772994995117
      ],
      "min": [
        -0.6814970970153809,
        3.9819693565368652,
        -0.6756772398948669
      ],
      "type": "VEC3"
    },
    {
      "bufferView": 2,
      "byteOffset": 49200,
      "componentType": 5126,
      "count": 50,
      "max": [
        0.8546910881996155,
        1.0,
        0.849806010723114
      ],
      "min": [
        -0.8546910881996155,
        -1.0,
        -0.8498061299324036
      ],
      "type": "VEC3"
    },
    {
      "bufferView": 1,
      "byteOffset": 16200,
      "componentType": 5126,
      "count": 50,
      "max": [
        0.65625,
        1.0
      ],
      "min": [
        0.34375,
        1.4901161193847656e-08
      ],
      "type": "VEC2"
    },
    {
      "bufferView": 0,
      "byteOffset": 30288,
      "componentType": 5125,
      "count": 96,
      "type": "SCALAR"
    }
  ],
  "asset": {
    "extras": {
      "author": "veroneoriginal (https://sketchfab.com/veroneoriginal)",
      "license": "CC-BY-4.0 (http://creativecommons.org/licenses/by/4.0/)",
      "source": "https://sketchfab.com/3d-models/potted-flower-bf119b845fbf40408cefb51eb6f89e4d",
      "title": "Potted Flower"
    },
    "generator": "Sketchfab-12.68.0",
    "version": "2.0"
  },
  "bufferViews": [
    {
      "buffer": 0,
      "byteLength": 30672,
      "name": "floatBufferViews",
      "target": 34963
    },
    {
      "buffer": 0,
      "byteLength": 16600,
      "byteOffset": 30672,
      "byteStride": 8,
      "name": "floatBufferViews",
      "target": 34962
    },
    {
      "buffer": 0,
      "byteLength": 49800,
      "byteOffset": 47272,
      "byteStride": 12,
      "name": "floatBufferViews",
      "target": 34962
    }
  ],
  "buffers": [
    {
      "byteLength": 97072,
      "uri": "scene.bin"
    }
  ],
  "materials": [
    {
      "doubleSided": true,
      "name": "green_grass",
      "pbrMetallicRoughness": {
        "baseColorFactor": [
          0.052224,
          0.204,
          0.052224,
          1.0
        ],
        "metallicFactor": 0.0,
        "roughnessFactor": 0.6
      }
    },
    {
      "doubleSided": true,
      "name": "green_stevloe",
      "pbrMetallicRoughness": {
        "baseColorFactor": [
          0.00872266999999999,
          0.33548399999999984,
          0.00872266999999999,
          1.0
        ],
        "metallicFactor": 0.0,
        "roughnessFactor": 0.4820437286053907
      }
    },
    {
      "doubleSided": true,
      "name": "lambert_sidushka",
      "pbrMetallicRoughness": {
        "baseColorFactor": [
          0.873,
          0.598196,
          0.206028,
          1.0
        ],
        "metallicFactor": 0.0,
        "roughnessFactor": 0.6
      }
    },
    {
      "doubleSided": true,
      "name": "lambert_nogi",
      "pbrMetallicRoughness": {
        "baseColorFactor": [
          0.3524,
          0.2393,
          0.0778,
          1.0
        ],
        "metallicFactor": 0.0,
        "roughnessFactor": 0.6
      }
    },
    {
      "doubleSided": true,
      "name": "grey_temno",
      "pbrMetallicRoughness": {
        "baseColorFactor": [
          0.387097,
          0.387097,
          0.387097,
          1.0
        ],
        "metallicFactor": 0.0,
        "roughnessFactor": 0.6
      }
    },
    {
      "doubleSided": true,
      "name": "grey_niz",
      "pbrMetallicRoughness": {
        "baseColorFactor": [
          0.696774,
          0.696774,
          0.696774,
          1.0
        ],
        "metallicFactor": 0.0,
        "roughnessFactor": 0.6
      }
    },
    {
      "doubleSided": true,
      "name": "zemlya",
      "pbrMetallicRoughness": {
        "baseColorFactor": [
          0.042,
          0.030988,
          0.01533,
          1.0
        ],
        "metallicFactor": 0.0,
        "roughnessFactor": 0.6
      }
    }
  ],
  "meshes": [
    {
      "name": "grass_green_grass_0",
      "primitives": [
        {
          "attributes": {
            "NORMAL": 1,
            "POSITION": 0,
            "TEXCOORD_0": 2
          },
          "indices": 3,
          "material": 0,
          "mode": 4
        }
      ]
    },
    {
      "name": "grass_green_stevloe_0",
      "primitives": [
        {
          "attributes": {
            "NORMAL": 5,
            "POSITION": 4,
            "TEXCOORD_0": 6
          },
          "indices": 7,
          "material": 1,
          "mode": 4
        }
      ]
    },
    {
      "name": "chair_seat_lambert_sidushka_0",
      "primitives": [
        {
          "attributes": {
            "NORMAL": 9,
            "POSITION": 8,
            "TEXCOORD_0": 10
          },
          "indices": 11,
          "material": 2,
          "mode": 4
        }
      ]
    },
    {
      "name": "chair_legs_lambert_nogi_0",
      "primitives": [
        {
          "attributes": {
            "NORMAL": 13,
            "POSITION": 12,
            "TEXCOORD_0": 14
          },
          "indices": 15,
          "material": 3,
          "mode": 4
        }
      ]
    },
    {
      "name": "planters_grey_temno_0",
      "primitives": [
        {
          "attributes": {
            "NORMAL": 17,
            "POSITION": 16,
            "TEXCOORD_0": 18
          },
          "indices": 19,
          "material": 4,
          "mode": 4
        }
      ]
    },
    {
      "name": "planters_grey_niz_0",
      "primitives": [
        {
          "attributes": {
            "NORMAL": 21,
            "POSITION": 20,
            "TEXCOORD_0": 22
          },
          "indices": 23,
          "material": 5,
          "mode": 4
        }
      ]
    },
    {
      "name": "ground_zemlya_0",
      "primitives": [
        {
          "attributes": {
            "NORMAL": 25,
            "POSITION": 24,
            "TEXCOORD_0": 26
          },
          "indices": 27,
          "material": 6,
          "mode": 4
        }
      ]
    }
  ],
  "nodes": [
    {
      "children": [
        1
      ],
      "matrix": [
        1.0,
        0.0,
        0.0,
        0.0,
        0.0,
        2.220446049250313e-16,
        -1.0,
        0.0,
        0.0,
        1.0,
        2.220446049250313e-16,
        0.0,
        0.0,
        0.0,
        0.0,
        1.0
      ],
      "name": "Sketchfab_model"
    },
    {
      "children": [
        2
      ],
      "matrix": [
        1.0,
        0.0,
        0.0,
        0.0,
        0.0,
        0.0,
        1.0,
        0.0,
        0.0,
        -1.0,
        0.0,
        0.0,
        0.0,
        0.0,
        0.0,
        1.0
      ],
      "name": "9513b1409fae4124bef1b263caa72b68.fbx"
    },
    {
      "children": [
        3,
        6,
        10,
        13
      ],
      "name": "RootNode"
    },
    {
      "children": [
        4,
        5
      ],
      "name": "grass"
    },
    {
      "mesh": 0,
      "name": "grass_green_grass_0"
    },
    {
      "mesh": 1,
      "name": "grass_green_stevloe_0"
    },
    {
      "children": [
        7,
        8
      ],
      "name": "chair_seat"
    },
    {
      "mesh": 2,
      "name": "chair_seat_lambert_sidushka_0"
    },
    {
      "children": [
        9
      ],
      "name": "chair_legs"
    },
    {
      "mesh": 3,
      "name": "chair_legs_lambert_nogi_0"
    },
    {
      "children": [
        11,
        12
      ],
      "name": "planters"
    },
    {
      "mesh": 4,
      "name": "planters_grey_temno_0"
    },
    {
      "mesh": 5,
      "name": "planters_grey_niz_0"
    },
    {
      "children": [
        14
      ],
      "name": "ground"
    },
    {
      "mesh": 6,
      "name": "ground_zemlya_0"
    }
  ],
  "scene": 0,
  "scenes": [
    {
      "name": "Sketchfab_Scene",
      "nodes": [
        0
      ]
    }
  ]
}
